<!DOCTYPE svg PUBLIC "-//W3C//DTD SVG 20010904//EN" "http://www.w3.org/TR/2001/REC-SVG-20010904/DTD/svg10.dtd">
<svg version="1.0" xmlns="http://www.w3.org/2000/svg" width="400px" height="400px" viewBox="0 0 4000 4000" preserveAspectRatio="xMidYMid meet">
<g id="layer101" fill="#281233" stroke="none">
 <path d="M1646 3068 c-8 -13 -84 -139 -169 -281 l-154 -257 -164 275 -164 274 -322 1 c-178 0 -323 -2 -323 -4 0 -3 146 -247 324 -544 l324 -540 -320 -534 c-177 -293 -323 -541 -326 -551 -4 -16 16 -17 316 -17 l321 0 157 262 c87 145 162 271 169 280 9 14 37 -27 175 -262 l165 -279 320 -1 320 0 355 592 355 592 3 -587 2 -587 300 0 300 0 -2 1093 -3 1092 -315 2 c-173 2 -320 0 -326 -5 -6 -4 -156 -250 -334 -547 -177 -297 -327 -544 -332 -550 -5 -5 -7 225 -6 548 l3 557 -317 0 -318 0 -14 -22z m52 -1119 l-3 -42 -23 41 -23 41 23 41 23 40 3 -40 c2 -22 2 -59 0 -81z"/>
 </g>
<g id="layer102" fill="#4f2660" stroke="none">
 <path d="M362 3058 c8 -13 155 -257 327 -544 l312 -521 -325 -542 c-180 -298 -326 -544 -326 -547 0 -2 145 -4 323 -4 l322 1 164 274 c90 151 165 275 166 275 1 0 76 -124 166 -275 l164 -274 322 -1 322 0 355 593 356 592 0 -592 0 -593 295 0 295 0 0 1090 0 1090 -322 -2 -322 -3 -483 -805 c-266 -443 -487 -811 -491 -817 -5 -8 -69 90 -167 254 -88 146 -161 270 -163 274 -2 5 141 251 319 546 177 296 324 541 326 546 2 4 -141 7 -319 7 l-323 0 -165 -275 c-90 -151 -167 -272 -170 -269 -3 3 -77 125 -166 272 l-160 267 -323 3 -323 2 14 -22z"/>
 </g>
<g id="layer103" fill="#663795" stroke="none">
 <path d="M1646 3058 c-13 -22 -88 -144 -487 -806 -88 -145 -159 -265 -159 -267 0 -2 -146 -247 -325 -544 l-324 -541 319 0 319 0 176 293 c375 619 1125 1874 1125 1881 0 3 -142 6 -315 6 l-315 0 -14 -22z"/>
 <path d="M2472 2263 c-270 -450 -563 -937 -652 -1083 -88 -145 -160 -268 -160 -272 0 -4 143 -8 318 -8 l317 0 650 1081 c358 595 652 1085 653 1090 2 5 -131 9 -316 9 l-319 0 -491 -817z"/>
 </g>

</svg>